<?xml version="1.0" standalone="no"?><!DOCTYPE svg PUBLIC "-//W3C//DTD SVG 1.1//EN" "http://www.w3.org/Graphics/SVG/1.1/DTD/svg11.dtd"><svg t="1598097025780" class="icon" viewBox="0 0 1024 1024" version="1.1" xmlns="http://www.w3.org/2000/svg" p-id="30016" xmlns:xlink="http://www.w3.org/1999/xlink" width="200" height="200"><defs><style type="text/css"></style></defs><path d="M266.24 225.28h491.52a81.92 81.92 0 0 1 81.92 81.92v409.6a81.92 81.92 0 0 1-81.92 81.92H266.24a81.92 81.92 0 0 1-81.92-81.92V307.2a81.92 81.92 0 0 1 81.92-81.92z m-40.96-163.84h573.44a40.96 40.96 0 1 1 0 81.92H225.28a40.96 40.96 0 1 1 0-81.92z m0 819.2h573.44a40.96 40.96 0 1 1 0 81.92H225.28a40.96 40.96 0 1 1 0-81.92z" p-id="30017"></path></svg>