<?xml version="1.0" standalone="no"?><!DOCTYPE svg PUBLIC "-//W3C//DTD SVG 1.1//EN" "http://www.w3.org/Graphics/SVG/1.1/DTD/svg11.dtd"><svg t="1598096986019" class="icon" viewBox="0 0 1024 1024" version="1.1" xmlns="http://www.w3.org/2000/svg" p-id="29252" xmlns:xlink="http://www.w3.org/1999/xlink" width="200" height="200"><defs><style type="text/css"></style></defs><path d="M500.8 928c2-15.8 3.2-31.8 3.2-47.8 0-96.2-37.4-188.6-105.4-256.6S238 520 141.8 520c-15.4 0-30.8 1-45.8 2.8 5.6 220.6 184.6 398.6 404.8 405.2z" p-id="29253"></path><path d="M460 148c0-16.6 1-32.8 2.8-49-190.6 23.4-343.4 178-364.4 369.4 14.4-1.4 28.8-2.2 43.6-2.2 229.8 0 414.2 184.4 414.2 414 0 15.4-0.8 30.6-2.6 45.6 193.2-20.2 349.2-172.4 371.6-364.8-16.8 2-33.8 1.2-51 1.2C644.2 562 460 377.8 460 148z" p-id="29254"></path><path d="M617.4 404.6c68 68 160.4 105.4 256.6 105.4 18.2 0 36.2-1.4 54-4-4.4-224-187.8-407-412.2-410-2.4 17-3.8 34.4-3.8 52 0 96.2 37.4 188.6 105.4 256.6zM464 98.6z" p-id="29255"></path></svg>