<?xml version="1.0" encoding="utf-8"?>
<!-- Generator: Adobe Illustrator 19.0.0, SVG Export Plug-In . SVG Version: 6.00 Build 0)  -->
<svg version="1.1" id="Lager_1" xmlns="http://www.w3.org/2000/svg" xmlns:xlink="http://www.w3.org/1999/xlink" x="0px" y="0px"
	 viewBox="0 0 595.3 595.3" style="enable-background:new 0 0 595.3 595.3;" xml:space="preserve">
<style type="text/css">
	.st0{fill:#FFFFFF;}
</style>
<g>
	<circle class="st0" cx="212.2" cy="208.1" r="15.7"/>
	<path class="st0" d="M164.3,262.6v1.3C164.3,263.2,164.3,262.6,164.3,262.6z"/>
	<path class="st0" d="M244,319.7h-1.1c-7.4,0-14.6,2.9-19.8,8c-5.3,5.2-8.6,12.4-8.6,20.5c0,7.7,2.9,14.9,8,20.1
		c5.2,5.3,12.1,8.6,19.9,8.7h0.9c7.7-0.1,14.9-3.3,20-8.7c5.1-5.2,7.9-12.4,7.9-20.1c0-7.8-3.1-14.9-8.2-20.1
		C258.2,323,251.2,320,244,319.7z"/>
	<circle class="st0" cx="128.9" cy="335.1" r="15.7"/>
	<path class="st0" d="M300.6,13.9c-155.2,0-281,125.8-281,281s125.8,281,281,281s281-125.8,281-281S455.8,13.9,300.6,13.9z
		 M284.3,113.9c10.3,0,18.6,8.3,18.6,18.6c0,10.3-8.3,18.6-18.6,18.6c-10.3,0-18.6-8.3-18.6-18.6C265.7,122.3,274,113.9,284.3,113.9
		z M301,176.4v96c0,9.2-7.5,16.7-16.7,16.7c-9.2,0-16.7-7.5-16.7-16.7v-96c0-9.2,7.5-16.7,16.7-16.7
		C293.5,159.6,301,167.1,301,176.4z M161.5,369.6c-8.9,8.9-21.3,14.2-34.4,14.2c-3.3,0-6.5-0.5-9.6-1.4c-1.2-0.3-2.4,0.6-2.4,1.8
		c0,0,0,9,0,9.1c0,9.4-7.6,17-17,17c-9.4,0-17-7.6-17-17c0-0.1,0-3.6,0-3.6h0v-54.6c0-13.2,4.7-25.4,13-34.4
		c8.4-9,19.9-14.3,33.1-14.3c13.1,0,25.4,5.3,34.4,14.3c8.9,9,14.3,21.4,14.3,34.5C175.8,348.4,170.4,360.6,161.5,369.6z
		 M164.3,282.1c0-0.1,0-11.5,0-16.8l0,13.2v-70.4c0-13.2,4.7-25.4,13-34.4c8.4-9,19.9-14.3,33.1-14.3c13.1,0,25.4,5.3,34.4,14.3
		c8.9,9,14.3,21.4,14.3,34.5c0,13.2-5.4,25.4-14.3,34.4c-8.9,8.9-21.3,14.2-34.4,14.2c-3.3,0-6.5-0.5-9.6-1.4
		c-1.2-0.3-2.4,0.6-2.4,1.8c0,0,0,24.9,0,24.9c0,9.4-7.6,17-17,17C171.9,299.1,164.3,291.5,164.3,282.1z M296,379.6
		c-5.2,9.2-13,16.8-22.1,22.1c-9.6,5.7-19.8,8.5-30.5,8.5h-1.3c-10.9,0-21.4-3.1-30.4-8.6s-16.7-13.1-22-22.1
		c-5.7-9.7-8.5-20-8.5-31.1c0-10.7,2.7-20.8,8.1-30.4c5.2-9.3,12.7-17.1,21.7-22.7c9.8-6,20.3-8.9,31.7-8.9h0.2
		c11.6,0,22.5,3.3,31.8,8.9c9,5.6,16.6,13.5,21.7,22.7c5.2,9.3,8,19.9,8,30.4C304.5,359.5,301.5,370.2,296,379.6z M406.6,393.5
		c0,9.2-7.5,16.7-16.7,16.7c-9.2,0-16.7-7.5-16.7-16.7l0-187.7c0-7.7-6.2-13.9-13.9-13.9s-13.9,6.2-13.9,13.9l0,187.7
		c0,9.2-7.5,16.7-16.7,16.7s-16.7-7.5-16.7-16.7V387V207h0c0-26.2,21.2-47.4,47.4-47.4c26.2,0,47.4,21.2,47.4,47.4h0V393.5z
		 M514.2,362.8c0,26.2-21.2,47.4-47.4,47.4c-26.2,0-47.4-21.2-47.4-47.4h0V207h0c0-26.2,21.2-47.4,47.4-47.4
		c11.7,0,24.5,5.3,30.7,11.2c6.2,5.9,8.7,10,10.5,13.6c5.2,10.7,2.6,17.4,0.7,20.1c-3.1,4.7-8.1,7.1-13.2,6.7
		c-10.1-0.7-12.1-9-16.4-14.1c-3.3-4-6.9-5.5-12.3-5.2h0c-7.6,0.7-13.9,6.2-13.9,13.9v157.6c0,7,5,13.3,12,14.3
		c8.4,1.1,15.7-5.5,15.7-13.7V331c0-1-0.8-1.8-1.8-1.8h-3.3c-8.2,0-14.8-6.6-14.8-14.8v-3.1c0-8.2,6.6-14.8,14.8-14.8h25.6
		c7.2,0,13.1,5.9,13.1,13.1L514.2,362.8L514.2,362.8z"/>
</g>
</svg>
