<?xml version="1.0" standalone="no"?><!DOCTYPE svg PUBLIC "-//W3C//DTD SVG 1.1//EN" "http://www.w3.org/Graphics/SVG/1.1/DTD/svg11.dtd"><svg t="1598096917942" class="icon" viewBox="0 0 1024 1024" version="1.1" xmlns="http://www.w3.org/2000/svg" p-id="29111" xmlns:xlink="http://www.w3.org/1999/xlink" width="200" height="200"><defs><style type="text/css"></style></defs><path d="M1004.307692 492.307692H905.846154V0H118.153846v492.307692H19.692308v39.384616H118.153846V1024h787.692308V531.692308h98.461538v-39.384616zM866.461538 39.384615v452.923077h-118.153846V39.384615h118.153846zM315.076923 531.692308h177.230769V748.307692H315.076923v-216.615384z m0-39.384616V275.692308h177.230769v216.615384H315.076923z m216.615385 39.384616H708.923077V748.307692h-177.230769v-216.615384z m0-39.384616V275.692308H708.923077v216.615384h-177.230769zM708.923077 39.384615v196.923077H315.076923V39.384615h393.846154zM157.538462 39.384615h118.153846v452.923077H157.538462V39.384615z m0 945.23077V531.692308h118.153846V984.615385H157.538462z m157.538461 0v-196.923077h393.846154v196.923077H315.076923z m551.384615 0h-118.153846V531.692308h118.153846V984.615385z" p-id="29112"></path></svg>