<?xml version="1.0" standalone="no"?><!DOCTYPE svg PUBLIC "-//W3C//DTD SVG 1.1//EN" "http://www.w3.org/Graphics/SVG/1.1/DTD/svg11.dtd"><svg t="1598095987857" class="icon" viewBox="0 0 1024 1024" version="1.1" xmlns="http://www.w3.org/2000/svg" p-id="7375" xmlns:xlink="http://www.w3.org/1999/xlink" width="200" height="200"><defs><style type="text/css"></style></defs><path d="M237.714286 548.571429a128 128 0 0 1-109.714286 126.72V786.285714h768v-110.994285a128 128 0 0 1 0-253.44V310.857143h-768v110.994286A128 128 0 0 1 237.714286 548.571429z m-146.285715-109.714286V292.571429a18.285714 18.285714 0 0 1 18.285715-18.285715h804.571428a18.285714 18.285714 0 0 1 18.285715 18.285715v146.285714a18.285714 18.285714 0 0 1-18.285715 18.285714 91.428571 91.428571 0 1 0 0 182.857143 18.285714 18.285714 0 0 1 18.285715 18.285714v146.285715a18.285714 18.285714 0 0 1-18.285715 18.285714H109.714286a18.285714 18.285714 0 0 1-18.285715-18.285714v-146.285715a18.285714 18.285714 0 0 1 18.285715-18.285714 91.428571 91.428571 0 1 0 0-182.857143 18.285714 18.285714 0 0 1-18.285715-18.285714z m312.795429-185.014857a18.285714 18.285714 0 0 1-9.472-35.328l387.364571-103.789715a18.285714 18.285714 0 0 1 22.381715 12.946286l21.796571 81.334857a18.285714 18.285714 0 0 1-35.328 9.472l-17.042286-63.670857-369.737142 99.035429zM640 365.714286a18.285714 18.285714 0 1 1 36.571429 0v73.142857a18.285714 18.285714 0 1 1-36.571429 0v-73.142857z m0 146.285714a18.285714 18.285714 0 1 1 36.571429 0v73.142857a18.285714 18.285714 0 1 1-36.571429 0v-73.142857z m0 146.285714a18.285714 18.285714 0 1 1 36.571429 0v73.142857a18.285714 18.285714 0 1 1-36.571429 0v-73.142857z" p-id="7376"></path></svg>