<?xml version="1.0" standalone="no"?><!DOCTYPE svg PUBLIC "-//W3C//DTD SVG 1.1//EN" "http://www.w3.org/Graphics/SVG/1.1/DTD/svg11.dtd"><svg t="1598096698915" class="icon" viewBox="0 0 1024 1024" version="1.1" xmlns="http://www.w3.org/2000/svg" p-id="13400" xmlns:xlink="http://www.w3.org/1999/xlink" width="200" height="200"><defs><style type="text/css"></style></defs><path d="M160 320c19.2 0 32-12.8 32-32L192 96c0-19.2-12.8-32-32-32S128 76.8 128 96l0 192C128 307.2 140.8 320 160 320z" p-id="13401"></path><path d="M192 384 96 384c-19.2 0-32 12.8-32 32s12.8 32 32 32l64 0 0 32L96 480c-19.2 0-32 12.8-32 32l0 96c0 19.2 12.8 32 32 32l96 0c19.2 0 32-12.8 32-32s-12.8-32-32-32L128 576l0-32 64 0c19.2 0 32-12.8 32-32l0-96C224 396.8 211.2 384 192 384z" p-id="13402"></path><path d="M192 704 96 704c-19.2 0-32 12.8-32 32s12.8 32 32 32l64 0 0 32L96 800c-19.2 0-32 12.8-32 32s12.8 32 32 32l64 0 0 32L96 896c-19.2 0-32 12.8-32 32s12.8 32 32 32l96 0c19.2 0 32-12.8 32-32l0-192C224 716.8 211.2 704 192 704z" p-id="13403"></path><path d="M384 224l544 0c19.2 0 32-12.8 32-32s-12.8-32-32-32L384 160c-19.2 0-32 12.8-32 32S364.8 224 384 224z" p-id="13404"></path><path d="M928 480 384 480c-19.2 0-32 12.8-32 32s12.8 32 32 32l544 0c19.2 0 32-12.8 32-32S947.2 480 928 480z" p-id="13405"></path><path d="M928 800 384 800c-19.2 0-32 12.8-32 32s12.8 32 32 32l544 0c19.2 0 32-12.8 32-32S947.2 800 928 800z" p-id="13406"></path></svg>