<?xml version="1.0" standalone="no"?><!DOCTYPE svg PUBLIC "-//W3C//DTD SVG 1.1//EN" "http://www.w3.org/Graphics/SVG/1.1/DTD/svg11.dtd"><svg t="1598096158085" class="icon" viewBox="0 0 1232 1024" version="1.1" xmlns="http://www.w3.org/2000/svg" p-id="8898" xmlns:xlink="http://www.w3.org/1999/xlink" width="240.625" height="200"><defs><style type="text/css"></style></defs><path d="M1204 237.2L1074.2 30C1062.6 11.4 1042 0 1020 0H212C190 0 169.4 11.4 157.8 30L28 237.2c-67 107-7.6 255.8 117.6 272.8 9 1.2 18.2 1.8 27.4 1.8 59.2 0 111.6-26 147.6-66.2 36 40.2 88.6 66.2 147.6 66.2 59.2 0 111.6-26 147.6-66.2 36 40.2 88.6 66.2 147.6 66.2 59.2 0 111.6-26 147.6-66.2 36.2 40.2 88.6 66.2 147.6 66.2 9.4 0 18.4-0.6 27.4-1.8 125.6-16.8 185.2-165.6 118-272.8zM1059 576c-20 0-39.8-3-59-7.6V768H232v-199.6c-19.2 4.4-39 7.6-59 7.6-12 0-24.2-0.8-36-2.4-11.2-1.6-22.2-4.2-32.8-7.2V960c0 35.4 28.6 64 64 64h896c35.4 0 64-28.6 64-64V566.4c-10.8 3.2-21.6 5.8-32.8 7.2-12.2 1.6-24.2 2.4-36.4 2.4z" fill="" p-id="8899"></path></svg>